# xmcd
#
# Track frame offsets:
#	150
#	17260
#	39435
#	56091
#	72065
#	89477
#	109743
#	126314
#	141506
#	161381
#	176444
#	195878
#	212183
#	229767
#	252551
#	269013
#	291615
#	304215
#
# Disc length: 4292 seconds
#
# Revision: 1
# Processed by: cddbd v1.5.2PL0 Copyright (c) Steve Scherf et al.
# Submitted via: audiograbber 1.83.01
#
DISCID=0e10c212
DTITLE=Various Artist - Now That's What I Call Country Vol. 5
DYEAR=2012
DGENRE=Country
TTITLE0=Toby Keith - Red Solo Cup
TTITLE1=Eric Church - Drink In My Hand
TTITLE2=Luke Bryan - I Don't Want This Night To End
TTITLE3=Jake Owen - Alone With You
TTITLE4=Blake Shelton - God Gave Me You
TTITLE5=Lionel Richie w. Jennifer Nettles - Hello (with Jennifer Nettles)
TTITLE6=Lady Antebellum - Just A Kiss
TTITLE7=Eli Young Band - Crazy Girl
TTITLE8=Taylor Swift - Sparks Fly
TTITLE9=Miranda Lambert - Baggage Claim
TTITLE10=Rascal Flatts - Banjo
TTITLE11=Keith Urban - You Gonna Fly
TTITLE12=The Band Perry - All Your Life
TTITLE13=Brad Paisley - Old Alabama
TTITLE14=Brantley Gilbert - Country Must Be Country Wide
TTITLE15=David Nail - Let It Rain
TTITLE16=Chris Young - You
TTITLE17=Dierks Bentley - Home
EXTD=
EXTT0=
EXTT1=
EXTT2=
EXTT3=
EXTT4=
EXTT5=
EXTT6=
EXTT7=
EXTT8=
EXTT9=
EXTT10=
EXTT11=
EXTT12=
EXTT13=
EXTT14=
EXTT15=
EXTT16=
EXTT17=
PLAYORDER=
